HIERARCHY
ROOT root
{
	OFFSET 0.000000 0.000000 0.000000
	CHANNELS 6 Xposition Yposition Zposition Zrotation Yrotation Xrotation
	JOINT lhip
	{
		OFFSET 0.058581 -0.082280 -0.017664
		CHANNELS 3 Zrotation Yrotation Xrotation
		JOINT lknee
		{
			OFFSET 0.043451 -0.386469 0.008037
			CHANNELS 3 Zrotation Yrotation Xrotation
			JOINT lankle
			{
				OFFSET -0.014790 -0.426874 -0.037428
				CHANNELS 3 Zrotation Yrotation Xrotation
				JOINT ltoe
				{
					OFFSET 0.041054 -0.060286 0.122042
					CHANNELS 3 Zrotation Yrotation Xrotation
					End Site
					{
						OFFSET 0.000000 0.000000 0.000000
					}
				}
			}
		}
	}
	JOINT rhip
	{
		OFFSET -0.060310 -0.090513 -0.013543
		CHANNELS 3 Zrotation Yrotation Xrotation
		JOINT rknee
		{
			OFFSET -0.043257 -0.383688 -0.004843
			CHANNELS 3 Zrotation Yrotation Xrotation
			JOINT rankle
			{
				OFFSET 0.019056 -0.420046 -0.034562
				CHANNELS 3 Zrotation Yrotation Xrotation
				JOINT rtoe
				{
					OFFSET -0.034840 -0.062106 0.130323
					CHANNELS 3 Zrotation Yrotation Xrotation
					End Site
					{
						OFFSET 0.000000 0.000000 0.000000
					}
				}
			}
		}
	}
	JOINT lowerback
	{
		OFFSET 0.004439 0.124404 -0.038385
		CHANNELS 3 Zrotation Yrotation Xrotation
		JOINT upperback
		{
			OFFSET 0.004488 0.137956 0.026820
			CHANNELS 3 Zrotation Yrotation Xrotation
			JOINT chest
			{
				OFFSET -0.002265 0.056032 0.002855
				CHANNELS 3 Zrotation Yrotation Xrotation
				JOINT lowerneck
				{
					OFFSET -0.013390 0.211636 -0.033468
					CHANNELS 3 Zrotation Yrotation Xrotation
					JOINT upperneck
					{
						OFFSET 0.010113 0.088937 0.050410
						CHANNELS 3 Zrotation Yrotation Xrotation
						End Site
						{
							OFFSET 0.000000 0.000000 0.000000
						}
					}
				}
				JOINT lclavicle
				{
					OFFSET 0.071702 0.114000 -0.018898
					CHANNELS 3 Zrotation Yrotation Xrotation
					JOINT lshoulder
					{
						OFFSET 0.122921 0.045205 -0.019046
						CHANNELS 3 Zrotation Yrotation Xrotation
						JOINT lelbow
						{
							OFFSET 0.255332 -0.015649 -0.022946
							CHANNELS 3 Zrotation Yrotation Xrotation
							JOINT lwrist
							{
								OFFSET 0.265709 0.012698 -0.007375
								CHANNELS 3 Zrotation Yrotation Xrotation
								End Site
								{
									OFFSET 0.000000 0.000000 0.000000
								}
							}
						}
					}
				}
				JOINT rclavicle
				{
					OFFSET -0.082954 0.112472 -0.023707
					CHANNELS 3 Zrotation Yrotation Xrotation
					JOINT rshoulder
					{
						OFFSET -0.113228 0.046853 -0.008472
						CHANNELS 3 Zrotation Yrotation Xrotation
						JOINT relbow
						{
							OFFSET -0.260127 -0.014369 -0.031269
							CHANNELS 3 Zrotation Yrotation Xrotation
							JOINT rwrist
							{
								OFFSET -0.269108 0.006794 -0.006027
								CHANNELS 3 Zrotation Yrotation Xrotation
								End Site
								{
									OFFSET 0.000000 0.000000 0.000000
								}
							}
						}
					}
				}
			}
		}
	}
}
MOTION
Frames: 6
Frame Time: 0.033333
0.523016 0.722479 0.982970 -92.518268 3.859507 89.358134 2.405792 -0.851817 3.230509 -2.890289 -15.997782 3.271090 7.098039 7.947032 -19.001736 0.000000 -0.000000 0.000000 1.081316 -3.536406 -0.923078 2.642992 0.646706 10.433787 2.357392 -4.810822 -14.767816 0.000000 -0.000000 0.000000 -1.956199 2.786110 7.115090 0.799466 -1.662478 1.936073 1.575173 -0.581803 2.587593 3.528998 5.329969 12.509894 4.334561 3.521191 3.928582 -24.804407 2.591702 5.523168 -61.233878 -4.142872 5.212907 12.163027 -16.863682 3.526835 -4.618034 0.817906 -8.262776 22.038514 -1.212471 5.720503 63.196380 2.792222 10.361215 -16.926091 30.664990 -1.650258 7.484456 0.546233 -9.877254 
0.520494 0.723951 0.982737 -92.768511 3.753122 89.292317 2.319389 -0.789729 3.333008 -2.986089 -15.874334 3.809936 7.153637 8.101188 -18.858162 0.000000 -0.000000 0.000000 1.054080 -3.575169 -0.675339 2.596033 0.760092 10.361192 2.069252 -4.649961 -14.756418 0.000000 -0.000000 0.000000 -1.939887 2.952241 6.864950 0.814431 -1.420304 1.879411 1.534256 -0.471171 2.657803 3.477740 5.381527 12.490461 4.279465 3.583511 4.072887 -24.822387 2.820176 5.525028 -61.121146 -4.200648 5.170232 12.104623 -17.565338 3.402444 -4.650857 0.877144 -8.366200 22.086770 -1.263854 5.509370 63.104716 2.888769 10.451400 -16.592366 30.137737 -1.199487 7.729680 0.615450 -9.506846 
0.518473 0.725531 0.982667 -93.034500 3.743608 89.296766 2.329517 -0.776513 3.525829 -2.918710 -15.893292 3.775628 7.087504 8.375279 -18.966976 0.000000 -0.000000 0.000000 1.174720 -3.517929 -0.462785 2.486602 0.972836 10.178922 2.141474 -4.607107 -14.847067 0.000000 -0.000000 0.000000 -1.876513 3.080651 6.703743 0.829031 -1.155575 1.686511 1.552898 -0.315356 2.623452 3.467974 5.354536 12.369492 4.315045 3.546960 4.172052 -24.962137 2.877685 5.308681 -61.112470 -4.345621 5.375149 12.015155 -18.067884 3.504233 -4.171118 0.778975 -8.294902 22.139680 -1.236624 5.402776 63.083897 2.889777 10.508366 -16.403862 29.716499 -1.218550 7.429078 0.603373 -9.597797 
0.515959 0.727344 0.982553 -92.988743 3.693823 89.421974 2.284900 -0.810160 3.489630 -2.809332 -15.862115 3.978954 7.055124 8.414643 -19.019718 0.000000 -0.000000 0.000000 1.172594 -3.599117 -0.201105 2.531144 0.878379 9.808438 2.190928 -4.406632 -14.882002 0.000000 -0.000000 0.000000 -1.815717 3.050792 6.444215 0.770305 -1.190987 1.364892 1.544972 -0.283727 2.604124 3.380626 5.405688 12.110787 4.305546 3.461144 4.307667 -25.087054 2.801796 5.269087 -61.280498 -4.600723 5.647727 12.010975 -18.936031 3.534459 -3.836648 0.563260 -8.183646 22.323206 -1.009296 5.415459 63.061563 3.046163 10.532047 -16.357104 29.424244 -1.214957 7.501982 0.732767 -9.363949 
0.514943 0.728293 0.982763 -92.961334 3.602517 89.332895 2.235513 -0.884851 3.726815 -2.765740 -15.764611 3.865853 7.025650 8.366136 -18.994542 0.000000 -0.000000 0.000000 1.098390 -3.676061 0.122825 2.565693 0.807944 9.543558 2.213491 -4.358819 -14.827815 0.000000 -0.000000 0.000000 -1.892299 3.089516 6.428698 0.754268 -1.235468 1.299984 1.571266 -0.357508 2.540335 3.344664 5.418608 12.046775 4.332342 3.510134 4.365585 -25.017325 2.594981 5.312019 -61.622848 -4.935546 5.796926 12.103082 -19.466767 3.371591 -3.811504 0.574249 -8.532834 22.320792 -0.777825 5.391608 63.208141 3.272113 10.596125 -16.340853 29.145940 -1.292227 7.522187 0.683403 -9.468621 
0.514050 0.730118 0.982850 -93.074151 3.608185 89.338338 2.361333 -0.937603 3.866407 -2.797920 -15.589575 3.794727 7.024105 8.414968 -19.079012 0.000000 -0.000000 0.000000 1.231236 -3.518711 0.258567 2.545083 0.837768 9.444228 2.157081 -4.343219 -14.830664 0.000000 -0.000000 0.000000 -2.015393 3.145793 6.365035 0.858106 -1.196182 1.196238 1.695522 -0.354124 2.431928 3.407483 5.389569 11.981536 4.368369 3.511306 4.527830 -25.196708 2.300470 5.174468 -61.828698 -5.343004 6.136107 11.894551 -20.435778 3.614405 -3.555964 0.424419 -8.413406 22.279098 -0.516120 5.340149 63.266350 3.412408 10.730783 -16.253406 29.384939 -1.218548 7.555788 0.646891 -9.384490 
